<?xml version="1.0" encoding="utf8" standalone="no"?>
<svg viewBox="0 0 48 48" xmlns="http://www.w3.org/2000/svg" xmlns:xlink="http://www.w3.org/1999/xlink">
<defs>
<linearGradient id="linearGradient2102">
<stop offset="0"/>
<stop offset="1" stop-opacity="0"/>
</linearGradient>
<linearGradient gradientUnits="userSpaceOnUse" id="linearGradient2132" x1="9" x2="38.99999">
<stop offset="0" stop-color="#ccc"/>
<stop offset=".34579" stop-color="#fff"/>
<stop offset=".72487" stop-color="#fff"/>
<stop offset="1" stop-color="#cecece"/>
</linearGradient>
<linearGradient gradientUnits="userSpaceOnUse" id="linearGradient2112" x2="0" xlink:href="#linearGradient2102" y1="21.61643" y2="40.21657"/>
<linearGradient gradientTransform="matrix(1,0,0,1.17189,2.5,-3.14117)" gradientUnits="userSpaceOnUse" id="linearGradient2116" x1="14" x2="13.5" xlink:href="#linearGradient2102" y1="21.0625" y2="33.42667"/>
<linearGradient gradientTransform="matrix(1,0,0,1.15982,18.50000,-2.81505)" gradientUnits="userSpaceOnUse" id="linearGradient2120" x1="14" x2="14.5" xlink:href="#linearGradient2102" y1="21.0625" y2="33.43116"/>
<radialGradient cx="29.28807" cy="15.72098" fx="29.15847" fy="15.75571" gradientUnits="userSpaceOnUse" id="radialGradient1362" r="8.90208">
<stop offset="0" stop-color="#fffcde"/>
<stop offset=".64486" stop-color="#f6e76a"/>
<stop offset="1" stop-color="#ffb738"/>
</radialGradient>
<radialGradient cx="24.71429" cy="38.57143" gradientTransform="matrix(1,0,0,.33333,0,25.71429)" gradientUnits="userSpaceOnUse" id="radialGradient1360" r="19.71429" xlink:href="#linearGradient2102"/>
</defs>
<path d="m44.42857,38.57143a19.71429,6.57143 0 1,1 -39.42857,0 19.71429,6.57143 0 1,1 39.42857,0z" fill="url(#radialGradient1360)" fill-rule="evenodd" opacity=".53165"/>
<path d="m39.77475,19.00862a8.66206,8.66206 0 1,1 -17.32411,0 8.66206,8.66206 0 1,1 17.32411,0z" fill="url(#radialGradient1362)" fill-rule="evenodd" stroke="#9c8c0a" stroke-linecap="round" stroke-linejoin="round" stroke-width=".48004" transform="matrix(2.08314,0,0,2.08314,-40.54715,-16.49224)"/>
<path d="m39.77475,19.00862a8.66206,8.66206 0 1,1 -17.32411,0 8.66206,8.66206 0 1,1 17.32411,0z" fill="none" opacity=".67722" stroke="#fff" stroke-linecap="round" stroke-linejoin="round" stroke-width=".50511" transform="matrix(1.97978,0,0,1.97978,-37.33128,-14.52746)"/>
<path d="m-.875,1.875a2.9375,2.875 0 0,1 -5.48145,1.4375" fill="none" stroke="#555753" transform="matrix(-.96593,-.25882,.25882,-.96593,24.53442,17.20131)"/>
<path d="m-.875,1.875a2.9375,2.875 0 0,1 -5.48145,1.4375" fill="none" stroke="#555753" transform="matrix(-.96593,-.25882,.25882,-.96593,15.78442,17.20131)"/>
<path d="m9.18754,21.04477c-1.53898,7.56738 4.69204,17.16753 14.85115,17.16753 10.2475,0 16.50553-8.43042 14.72004-17.10503l-29.57119-.0625z" fill="url(#linearGradient2132)"/>
<path d="m24.5,21.52866v16.85428" fill="none" opacity=".18182" stroke="url(#linearGradient2112)" stroke-linecap="square"/>
<path d="m16.5,21.46863v14.06275" fill="none" opacity=".18182" stroke="url(#linearGradient2116)" stroke-linecap="square"/>
<path d="m32.5,21.54111v13.9178" fill="none" opacity=".18182" stroke="url(#linearGradient2120)" stroke-linecap="square"/>
<path d="m9.44094,20.61586c-1.78065,8.82193 5.15901,18.08781 14.80906,18.08781 10.00354,0 16.65222-9.57838 14.37156-18.15031l-29.18062.0625z" fill="none" stroke="#8f5902"/>
</svg>
